<svg width="93" height="79" viewBox="0 0 93 79" fill="none" xmlns="http://www.w3.org/2000/svg">
<path d="M55.0633 64.2172C52.5411 64.2172 50.4882 62.1657 50.4882 59.6416V48.1771C50.4882 43.1536 54.5747 39.0685 59.5962 39.0685C60.5334 39.0685 61.2924 39.8287 61.2924 40.7645C61.2924 41.7017 60.5334 42.4612 59.5962 42.4612C56.4457 42.4612 53.8817 45.0246 53.8817 48.1771V59.6416C53.8817 60.2946 54.4116 60.8244 55.0633 60.8244C55.7142 60.8244 56.2454 60.2946 56.2454 59.6416V52.4725C56.2454 51.5353 57.0043 50.7772 57.9409 50.7772C58.8788 50.7772 59.6376 51.5353 59.6376 52.4725V59.6416C59.6376 62.1657 57.5861 64.2172 55.0633 64.2172Z" fill="white"/>
<path d="M76.6508 64.2172C74.1279 64.2172 72.0758 62.1657 72.0758 59.6416V52.4725C72.0758 51.5353 72.8359 50.7772 73.7725 50.7772C74.7097 50.7772 75.4692 51.5353 75.4692 52.4725V59.6416C75.4692 60.2946 75.999 60.8244 76.6508 60.8244C77.3024 60.8244 77.8322 60.2946 77.8322 59.6416V48.1771C77.8322 45.0246 75.2688 42.4612 72.1177 42.4612C71.1805 42.4612 70.421 41.7017 70.421 40.7645C70.421 39.8287 71.1805 39.0685 72.1177 39.0685C77.1393 39.0685 81.225 43.1536 81.225 48.1771V59.6416C81.225 62.1657 79.1735 64.2172 76.6508 64.2172Z" fill="white"/>
<path d="M65.8574 25.7416C63.3373 25.7416 61.287 27.7912 61.287 30.312C61.287 32.8321 63.3373 34.8816 65.8574 34.8816C68.3769 34.8816 70.427 32.8321 70.427 30.312C70.427 27.7912 68.3769 25.7416 65.8574 25.7416ZM65.8574 38.2744C61.4661 38.2744 57.8936 34.7011 57.8936 30.312C57.8936 25.92 61.4661 22.3488 65.8574 22.3488C70.2479 22.3488 73.8198 25.92 73.8198 30.312C73.8198 34.7011 70.2479 38.2744 65.8574 38.2744Z" fill="white"/>
<path d="M76.6509 64.2172H55.0633C54.1261 64.2172 53.3666 63.4557 53.3666 62.5218C53.3666 61.5846 54.1261 60.8244 55.0633 60.8244H76.6509C77.5874 60.8244 78.3476 61.5846 78.3476 62.5218C78.3476 63.4557 77.5874 64.2172 76.6509 64.2172Z" fill="white"/>
<path d="M65.8574 46.6755C65.5272 46.6755 65.1957 46.5803 64.9095 46.3879L58.6491 42.1717C57.8722 41.6486 57.6659 40.5941 58.1892 39.8167C58.713 39.0412 59.7666 38.8355 60.5435 39.3587L65.8574 42.934L71.1698 39.3587C71.9487 38.8355 73.0011 39.0412 73.525 39.8167C74.0481 40.5941 73.8417 41.6486 73.0655 42.1717L66.8052 46.3879C66.5177 46.5803 66.1875 46.6755 65.8574 46.6755Z" fill="white"/>
<path d="M39.7767 21.7591C38.8388 21.7591 38.08 20.9989 38.08 20.0637V12.6305C38.08 11.6933 38.8388 10.9331 39.7767 10.9331C40.7133 10.9331 41.4721 11.6933 41.4721 12.6305V20.0637C41.4721 20.9989 40.7133 21.7591 39.7767 21.7591Z" fill="white"/>
<path d="M55.0745 25.472C54.6412 25.472 54.2066 25.3083 53.8757 24.9748C53.2128 24.3131 53.2128 23.2403 53.8757 22.5772L57.2765 19.1758C57.9388 18.5127 59.0119 18.5127 59.6747 19.1758C60.3371 19.84 60.3371 20.9137 59.6747 21.5747L56.2747 24.9748C55.9432 25.3083 55.5085 25.472 55.0745 25.472Z" fill="white"/>
<path d="M39.7767 67.218C38.8388 67.218 38.08 66.4565 38.08 65.5192V58.0881C38.08 57.1508 38.8388 56.3918 39.7767 56.3918C40.7133 56.3918 41.4721 57.1508 41.4721 58.0881V65.5192C41.4721 66.4565 40.7133 67.218 39.7767 67.218Z" fill="white"/>
<path d="M21.0768 59.4712C20.6428 59.4712 20.2088 59.3061 19.8778 58.9753C19.215 58.3109 19.215 57.2372 19.8778 56.5743L23.2774 53.1749C23.9389 52.5119 25.0133 52.5119 25.6764 53.1749C26.3387 53.8378 26.3387 54.9115 25.6764 55.5725L22.277 58.9753C21.9454 59.3061 21.5113 59.4712 21.0768 59.4712Z" fill="white"/>
<path d="M20.7627 40.7711H13.3314C12.3942 40.7711 11.6346 40.013 11.6346 39.0758C11.6346 38.1385 12.3942 37.3797 13.3314 37.3797H20.7627C21.6999 37.3797 22.4587 38.1385 22.4587 39.0758C22.4587 40.013 21.6999 40.7711 20.7627 40.7711Z" fill="white"/>
<path d="M24.4769 25.472C24.0429 25.472 23.6075 25.3083 23.2774 24.9748L19.8778 21.5747C19.215 20.9137 19.215 19.84 19.8778 19.1758C20.5402 18.5127 21.6146 18.5127 22.277 19.1758L25.6764 22.5772C26.3387 23.2403 26.3387 24.3131 25.6764 24.9748C25.3454 25.3083 24.9109 25.472 24.4769 25.472Z" fill="white"/>
<path d="M39.83 72.7834C31.0534 72.7834 22.3882 69.372 15.9341 62.9185C9.5652 56.5503 6.05859 48.0814 6.05859 39.0758C6.05859 30.0697 9.5652 21.602 15.9341 15.2344C22.3023 8.8642 30.7694 5.3576 39.7768 5.3576C48.7829 5.3576 57.25 8.8642 63.6182 15.2344C64.4123 16.0267 65.1791 16.8753 65.8973 17.7513C66.491 18.4755 66.384 19.5438 65.6603 20.1382C64.9328 20.7314 63.8651 20.6262 63.2721 19.9C62.6257 19.1112 61.9347 18.3477 61.2206 17.6334C55.4914 11.9063 47.8763 8.75037 39.7768 8.75037C31.6759 8.75037 24.0609 11.9063 18.3324 17.6334C12.6052 23.3593 9.45137 30.9763 9.45137 39.0758C9.45137 47.1748 12.6052 54.7924 18.3324 60.5196C27.3432 69.5284 41.1428 71.9434 52.669 66.533C53.5164 66.1343 54.5281 66.499 54.9255 67.3477C55.3242 68.1958 54.9589 69.2049 54.1114 69.6036C49.5524 71.7437 44.6739 72.7834 39.83 72.7834Z" fill="white"/>
<path d="M39.7767 36.7547C39.1817 36.7547 38.5866 36.9797 38.1339 37.4331C37.228 38.3376 37.228 39.8121 38.1339 40.718C39.0392 41.6232 40.5129 41.6232 41.4183 40.718C42.3241 39.8121 42.3241 38.3376 41.4183 37.4331C40.9655 36.9797 40.3704 36.7547 39.7767 36.7547ZM39.7767 44.7878C38.313 44.7878 36.8485 44.2306 35.7349 43.1156C33.5057 40.887 33.5057 37.2627 35.7349 35.0353C37.9628 32.8047 41.5893 32.8047 43.8172 35.0353C46.0458 37.2627 46.0458 40.887 43.8172 43.1156C42.7036 44.2306 41.2392 44.7878 39.7767 44.7878Z" fill="white"/>
<path d="M39.7834 78.223C29.7522 78.223 19.7609 74.3476 12.1326 66.7207C-3.11068 51.4761 -3.11068 26.6735 12.1326 11.431C27.3746 -3.81036 52.1784 -3.81036 67.4209 11.431C69.0106 13.0226 70.4669 14.7505 71.7497 16.5704C72.2902 17.3352 72.107 18.3936 71.3416 18.9334C70.5768 19.476 69.5177 19.2902 68.9772 18.5248C67.8057 16.8652 66.4745 15.285 65.0213 13.83C51.1007 -0.0900803 28.4515 -0.0887146 14.5309 13.83C0.610938 27.7505 0.610938 50.399 14.5309 64.3197C27.5462 77.3351 48.0939 78.3814 62.3289 66.756C63.0531 66.1616 64.1234 66.272 64.7152 66.9983C65.3069 67.7225 65.1997 68.7909 64.4741 69.3839C57.2307 75.3022 48.492 78.223 39.7834 78.223Z" fill="white"/>
<path d="M36.9344 37.9303C36.5004 37.9303 36.0663 37.7631 35.7349 37.4331L31.2877 32.9851C30.6248 32.3221 30.6248 31.2492 31.2877 30.5862C31.95 29.9245 33.0238 29.9245 33.6868 30.5862L38.1339 35.0353C38.7962 35.6963 38.7962 36.77 38.1339 37.4331C37.8031 37.7631 37.3684 37.9303 36.9344 37.9303Z" fill="white"/>
<path d="M39.7767 52.9519C38.8388 52.9519 38.08 52.1938 38.08 51.2565V43.0936C38.08 42.1564 38.8388 41.3983 39.7767 41.3983C40.7133 41.3983 41.4721 42.1564 41.4721 43.0936V51.2565C41.4721 52.1938 40.7133 52.9519 39.7767 52.9519Z" fill="white"/>
<path d="M91.0652 62.3055H86.0005C85.0639 62.3055 84.3049 61.5433 84.3049 60.6081C84.3049 59.6709 85.0639 58.9107 86.0005 58.9107H91.0652C92.0018 58.9107 92.762 59.6709 92.762 60.6081C92.762 61.5433 92.0018 62.3055 91.0652 62.3055Z" fill="white"/>
<path d="M90.8735 55.106H85.8094C84.8722 55.106 84.1127 54.3458 84.1127 53.4086C84.1127 52.4713 84.8722 51.713 85.8094 51.713H90.8735C91.8114 51.713 92.5702 52.4713 92.5702 53.4086C92.5702 54.3458 91.8114 55.106 90.8735 55.106Z" fill="white"/>
<path d="M90.6825 47.9043H85.6178C84.6812 47.9043 83.9222 47.1462 83.9222 46.2089C83.9222 45.2729 84.6812 44.5115 85.6178 44.5115H90.6825C91.6191 44.5115 92.3793 45.2729 92.3793 46.2089C92.3793 47.1462 91.6191 47.9043 90.6825 47.9043Z" fill="white"/>
</svg>
