<svg width="55" height="68" viewBox="0 0 55 68" fill="none" xmlns="http://www.w3.org/2000/svg">
<path d="M17.3581 37.3333H37.3952M27.3766 27.3333V47.3333M44.0742 64H10.679C8.90764 64 7.20881 63.2976 5.95624 62.0474C4.70368 60.7971 4 59.1014 4 57.3333V10.6667C4 8.89856 4.70368 7.20286 5.95624 5.95262C7.20881 4.70238 8.90764 4 10.679 4H29.3336C30.2192 4.00019 31.0685 4.3515 31.6946 4.97667L49.7748 23.0233C50.4011 23.6483 50.7531 24.496 50.7532 25.38V57.3333C50.7532 59.1014 50.0496 60.7971 48.797 62.0474C47.5444 63.2976 45.8456 64 44.0742 64Z" stroke="#3A3939" stroke-width="8" stroke-linecap="round" stroke-linejoin="round"/>
</svg>
