<svg width="61" height="61" viewBox="0 0 61 61" fill="none" xmlns="http://www.w3.org/2000/svg">
<rect x="4.60297" y="6.79114" width="52.0395" height="36.6204" fill="#FFFACE"/>
<path fill-rule="evenodd" clip-rule="evenodd" d="M4.60297 42.8549V43.4115H56.6425V6.79114H47.3164C41.1825 25.6831 24.7265 39.9225 4.60297 42.8549Z" fill="#ECE7C3"/>
<rect x="41.2238" y="11.6096" width="11.5643" height="20.2376" rx="2" fill="#94CEB2"/>
<rect x="30.6229" y="12.5734" width="6.74586" height="24.0924" fill="#FF9090"/>
<rect x="20.0225" y="16.4281" width="6.74586" height="20.2376" fill="#FDDFBC"/>
<rect x="9.42175" y="19.3192" width="6.74586" height="17.3465" fill="#DEB5FF"/>
<rect x="1.71204" y="1.00903" width="56.858" height="5.78217" fill="#E8E1B5"/>
<path fill-rule="evenodd" clip-rule="evenodd" d="M16.2484 1.00903H18.0946C17.492 1.10595 16.8778 1.09421 16.2484 1.00903ZM1.71204 5.3372C34.7428 5.2203 51.9186 3.8999 58.57 2.47895V6.7912H1.71204V5.3372Z" fill="#BAB489"/>
<path d="M5.453 7.57174V42.087C5.453 42.6889 5.94312 43.179 6.54501 43.179H54.4368C55.0387 43.179 55.5277 42.6889 55.5277 42.087V7.57174H5.453ZM54.4368 45.3607H6.54501C4.73932 45.3607 3.2702 43.8927 3.2702 42.087V6.48087C3.2702 5.87788 3.75917 5.3889 4.36216 5.3889H56.6197C57.2226 5.3889 57.7105 5.87788 57.7105 6.48087V42.087C57.7105 43.8927 56.2414 45.3607 54.4368 45.3607Z" fill="#3A3939"/>
<path d="M30.4901 53.567C29.306 53.567 28.3424 54.5307 28.3424 55.7147C28.3424 56.8988 29.306 57.8625 30.4901 57.8625C31.6742 57.8625 32.6379 56.8988 32.6379 55.7147C32.6379 54.5307 31.6742 53.567 30.4901 53.567ZM30.4901 60.0453C28.1023 60.0453 26.1606 58.1026 26.1606 55.7147C26.1606 53.3269 28.1023 51.3841 30.4901 51.3841C32.879 51.3841 34.8207 53.3269 34.8207 55.7147C34.8207 58.1026 32.879 60.0453 30.4901 60.0453Z" fill="#3A3939"/>
<path d="M30.4899 53.5669C29.887 53.5669 29.3991 53.0779 29.3991 52.476V44.2698C29.3991 43.6669 29.887 43.179 30.4899 43.179C31.0929 43.179 31.5819 43.6669 31.5819 44.2698V52.476C31.5819 53.0779 31.0929 53.5669 30.4899 53.5669Z" fill="#3A3939"/>
<path d="M50.844 14.97H42.9591C42.3561 14.97 41.8671 14.481 41.8671 13.878C41.8671 13.2761 42.3561 12.7871 42.9591 12.7871H50.844C51.4459 12.7871 51.9349 13.2761 51.9349 13.878C51.9349 14.481 51.4459 14.97 50.844 14.97Z" fill="#3A3939"/>
<path d="M50.844 20.2422H42.9591C42.3561 20.2422 41.8671 19.7532 41.8671 19.1502C41.8671 18.5472 42.3561 18.0594 42.9591 18.0594H50.844C51.4459 18.0594 51.9349 18.5472 51.9349 19.1502C51.9349 19.7532 51.4459 20.2422 50.844 20.2422Z" fill="#3A3939"/>
<path d="M50.844 25.5135H42.9591C42.3561 25.5135 41.8671 25.0246 41.8671 24.4216C41.8671 23.8186 42.3561 23.3307 42.9591 23.3307H50.844C51.4459 23.3307 51.9349 23.8186 51.9349 24.4216C51.9349 25.0246 51.4459 25.5135 50.844 25.5135Z" fill="#3A3939"/>
<path d="M50.844 30.7858H42.9591C42.3561 30.7858 41.8671 30.2968 41.8671 29.6938C41.8671 29.0908 42.3561 28.6029 42.9591 28.6029H50.844C51.4459 28.6029 51.9349 29.0908 51.9349 29.6938C51.9349 30.2968 51.4459 30.7858 50.844 30.7858Z" fill="#3A3939"/>
<path d="M2.93109 5.38894H58.0501V2.22817H2.93109V5.38894ZM59.141 7.57178H1.84025C1.23836 7.57178 0.748291 7.08391 0.748291 6.48091V1.13729C0.748291 0.534302 1.23836 0.0453343 1.84025 0.0453343H59.141C59.7439 0.0453343 60.2318 0.534302 60.2318 1.13729V6.48091C60.2318 7.08391 59.7439 7.57178 59.141 7.57178Z" fill="#3A3939"/>
<path d="M11.076 35.6997H14.5438V20.7828H11.076V35.6997ZM15.6347 37.8826H9.98521C9.38112 37.8826 8.89325 37.3936 8.89325 36.7906V19.6919C8.89325 19.089 9.38112 18.6011 9.98521 18.6011H15.6347C16.2388 18.6011 16.7266 19.089 16.7266 19.6919V36.7906C16.7266 37.3936 16.2388 37.8826 15.6347 37.8826Z" fill="#3A3939"/>
<path d="M21.5297 35.6997H24.9975V17.963H21.5297V35.6997ZM26.0894 37.8826H20.4389C19.8348 37.8826 19.3469 37.3936 19.3469 36.7906V16.8721C19.3469 16.2691 19.8348 15.7813 20.4389 15.7813H26.0894C26.6913 15.7813 27.1814 16.2691 27.1814 16.8721V36.7906C27.1814 37.3936 26.6913 37.8826 26.0894 37.8826Z" fill="#3A3939"/>
<path d="M31.9834 35.6997H35.4523V14.2343H31.9834V35.6997ZM36.5431 37.8826H30.8915C30.2896 37.8826 29.8006 37.3936 29.8006 36.7906V13.1434C29.8006 12.5404 30.2896 12.0515 30.8915 12.0515H36.5431C37.145 12.0515 37.6351 12.5404 37.6351 13.1434V36.7906C37.6351 37.3936 37.145 37.8826 36.5431 37.8826Z" fill="#3A3939"/>
<path d="M40.9996 37.8826H8.07518C7.47109 37.8826 6.98322 37.3936 6.98322 36.7906C6.98322 36.1887 7.47109 35.6997 8.07518 35.6997H40.9996C41.6026 35.6997 42.0905 36.1887 42.0905 36.7906C42.0905 37.3936 41.6026 37.8826 40.9996 37.8826Z" fill="#3A3939"/>
<path d="M11.0465 5.38894H24.3069V2.22817H11.0465V5.38894ZM25.3978 7.57178H9.95454C9.35155 7.57178 8.86371 7.08391 8.86371 6.48091V1.13729C8.86371 0.534302 9.35155 0.0453343 9.95454 0.0453343H25.3978C25.9997 0.0453343 26.4897 0.534302 26.4897 1.13729V6.48091C26.4897 7.08391 25.9997 7.57178 25.3978 7.57178Z" fill="#3A3939"/>
<path d="M36.6758 5.38894H49.9351V2.22817H36.6758V5.38894ZM51.0271 7.57178H35.585C34.982 7.57178 34.493 7.08391 34.493 6.48091V1.13729C34.493 0.534302 34.982 0.0453343 35.585 0.0453343H51.0271C51.6301 0.0453343 52.1191 0.534302 52.1191 1.13729V6.48091C52.1191 7.08391 51.6301 7.57178 51.0271 7.57178Z" fill="#3A3939"/>
<path d="M19.7197 50.0706H6.44074C5.83775 50.0706 5.34985 49.5816 5.34985 48.9786C5.34985 48.3756 5.83775 47.8866 6.44074 47.8866H19.7197C20.3227 47.8866 20.8106 48.3756 20.8106 48.9786C20.8106 49.5816 20.3227 50.0706 19.7197 50.0706Z" fill="#3A3939"/>
<path d="M19.7197 54.7092H6.44074C5.83775 54.7092 5.34985 54.2203 5.34985 53.6173C5.34985 53.0143 5.83775 52.5253 6.44074 52.5253H19.7197C20.3227 52.5253 20.8106 53.0143 20.8106 53.6173C20.8106 54.2203 20.3227 54.7092 19.7197 54.7092Z" fill="#3A3939"/>
<path d="M54.5409 50.0706H41.2609C40.659 50.0706 40.17 49.5816 40.17 48.9786C40.17 48.3756 40.659 47.8866 41.2609 47.8866H54.5409C55.1428 47.8866 55.6329 48.3756 55.6329 48.9786C55.6329 49.5816 55.1428 50.0706 54.5409 50.0706Z" fill="#3A3939"/>
<path d="M54.5409 54.7092H41.2609C40.659 54.7092 40.17 54.2203 40.17 53.6173C40.17 53.0143 40.659 52.5253 41.2609 52.5253H54.5409C55.1428 52.5253 55.6329 53.0143 55.6329 53.6173C55.6329 54.2203 55.1428 54.7092 54.5409 54.7092Z" fill="#3A3939"/>
<path d="M45.1351 60.0453H15.8472C15.2443 60.0453 14.7564 59.5574 14.7564 58.9533C14.7564 58.3503 15.2443 57.8625 15.8472 57.8625H45.1351C45.737 57.8625 46.226 58.3503 46.226 58.9533C46.226 59.5574 45.737 60.0453 45.1351 60.0453Z" fill="#3A3939"/>
</svg>
