<svg width="14" height="14" viewBox="0 0 14 14" fill="none" xmlns="http://www.w3.org/2000/svg">
<path d="M9.5 4.5L7 8L4.5 7M7 13C7.78793 13 8.56815 12.8448 9.2961 12.5433C10.0241 12.2417 10.6855 11.7998 11.2426 11.2426C11.7998 10.6855 12.2417 10.0241 12.5433 9.2961C12.8448 8.56815 13 7.78793 13 7C13 5.4087 12.3679 3.88258 11.2426 2.75736C10.1174 1.63214 8.5913 1 7 1C5.4087 1 3.88258 1.63214 2.75736 2.75736C1.63214 3.88258 1 5.4087 1 7" stroke="black" stroke-width="1.5" stroke-linecap="round" stroke-linejoin="round"/>
<path d="M7 13C7.78793 13 8.56815 12.8448 9.2961 12.5433C10.0241 12.2417 10.6855 11.7998 11.2426 11.2426C11.7998 10.6855 12.2417 10.0241 12.5433 9.2961C12.8448 8.56815 13 7.78793 13 7C13 5.4087 12.3679 3.88258 11.2426 2.75736C10.1174 1.63214 8.5913 1 7 1C5.4087 1 3.88258 1.63214 2.75736 2.75736C1.63214 3.88258 1 5.4087 1 7" stroke-width="1.5" stroke-linecap="round" stroke-linejoin="round"/>
<defs>
<radialGradient id="paint0_radial_7_189" cx="0" cy="0" r="1" gradientUnits="userSpaceOnUse" gradientTransform="translate(-1.5 2.5) rotate(32.9052) scale(15.1863)">
<stop stop-color="#1E3E4B"/>
<stop offset="1" stop-color="#22BDFF"/>
</radialGradient>
</defs>
</svg>
