<svg width="28" height="28" viewBox="0 0 28 28" fill="none" xmlns="http://www.w3.org/2000/svg">
<path d="M24.3704 15.7175H12.981L4.5528 24.3734C7.51405 26.4235 14.6666 29.567 19.5869 25.7402C24.5071 21.9133 24.826 17.4638 24.3704 15.7175Z" fill="#FF9191"/>
<path d="M12.7532 15.7175L4.78057 7.28926C2.04534 8.31497 0.554193 13.8593 1.36374 18.2231C1.84862 20.8369 3.18605 22.5511 4.78057 24.1457L12.7532 15.7175Z" fill="#FDDFBC"/>
<path fill-rule="evenodd" clip-rule="evenodd" d="M15.0311 1.37502V13.4396H26.8741C26.7554 6.90309 21.5381 1.61193 15.0311 1.37502Z" fill="#99C2D3"/>
<path fill-rule="evenodd" clip-rule="evenodd" d="M15.0311 10.606V13.4396H26.8741C26.7976 9.22479 24.6011 5.52779 21.306 3.36973C18.5539 5.08989 16.3535 7.61069 15.0311 10.606Z" fill="#154052" fill-opacity="0.48"/>
<path d="M12.7532 3.87242V15.2619L4.5528 7.28926C5.0843 6.83368 6.55734 5.69473 8.19742 4.78358C9.8375 3.87242 11.918 3.79649 12.7532 3.87242Z" fill="#DEB5FF"/>
<path d="M12.7532 3.64463L12.981 15.7175L10.7031 13.4396L7.9696 4.78358C9.24522 4.05465 11.6902 3.72056 12.7532 3.64463Z" fill="#312B2B" fill-opacity="0.48"/>
<path fill-rule="evenodd" clip-rule="evenodd" d="M21.4125 15.4897C19.6275 19.7702 15.4028 22.7789 10.4753 22.7789C6.75491 22.7789 3.4351 21.0637 1.26355 18.3809C2.55395 23.5252 7.20871 27.3347 12.7532 27.3347C19.2951 27.3347 24.5983 22.0315 24.5983 15.4897L21.4125 15.4897Z" fill="#312B2B" fill-opacity="0.48"/>
<circle cx="21.8648" cy="2.2779" r="2.27789" fill="#F0B48F"/>
<path d="M26.1928 10.7061H17.5368C16.4434 7.97262 17.8405 6.3781 18.6758 5.92252C20.0425 5.69473 23.186 5.42138 24.8261 6.15031C26.4661 6.87923 26.4206 9.49122 26.1928 10.7061Z" fill="#C3A879"/>
<path d="M23.6871 10.9339V5.69474C24.9627 5.69474 25.7372 6.60589 25.965 7.06147V10.9339H23.6871Z" fill="white"/>
<path d="M12.2888 4.33908C6.2854 4.60952 1.48397 9.57847 1.48397 15.6477C1.48397 21.8899 6.56268 26.9681 12.805 26.9681C18.8741 26.9681 23.843 22.1672 24.1135 16.1638H12.805C12.5199 16.1638 12.2888 15.9328 12.2888 15.6477V4.33908ZM12.805 28C5.9936 28 0.452576 22.459 0.452576 15.6477C0.452576 8.83685 5.9936 3.29519 12.805 3.29519C13.09 3.29519 13.3207 3.5264 13.3207 3.81146V15.132H24.6412C24.9262 15.132 25.1574 15.3626 25.1574 15.6477C25.1574 22.459 19.6163 28 12.805 28Z" fill="black"/>
<path d="M12.805 25.8145C12.5199 25.8145 12.2888 25.5833 12.2888 25.2986C12.2888 25.0142 12.5199 24.7826 12.805 24.7826C16.7632 24.7826 20.2518 22.2579 21.4858 18.5003C21.5744 18.2293 21.8668 18.081 22.1368 18.1712C22.4073 18.2598 22.555 18.5515 22.4664 18.8222C21.0924 23.0048 17.2099 25.8145 12.805 25.8145Z" fill="black"/>
<path d="M26.8563 13.9487H15.0196C14.7351 13.9487 14.5034 13.7181 14.5034 13.433V1.59638C14.5034 1.31132 14.7351 1.08053 15.0196 1.08053C16.1288 1.08053 17.2275 1.22731 18.2864 1.51698C18.5611 1.59213 18.7233 1.87553 18.6477 2.15028C18.573 2.42606 18.289 2.58782 18.0143 2.5121C17.2084 2.29182 16.377 2.16163 15.5359 2.12338V12.9168H26.3287C26.322 12.7655 26.3121 12.6147 26.2997 12.4642C26.2753 12.1808 26.4858 11.9304 26.7698 11.9067C27.0585 11.8874 27.3041 12.0938 27.3275 12.3778C27.3575 12.7267 27.372 13.0815 27.372 13.433C27.372 13.5693 27.3181 13.7005 27.2207 13.7979C27.1243 13.8942 26.9932 13.9487 26.8563 13.9487Z" fill="black"/>
<path d="M10.9053 7.87639C10.6203 7.87639 10.3898 7.64582 10.3898 7.36085V6.32924C10.3898 6.04426 10.6203 5.81374 10.9053 5.81374C11.1908 5.81374 11.4214 6.04426 11.4214 6.32924V7.36085C11.4214 7.64582 11.1908 7.87639 10.9053 7.87639Z" fill="black"/>
<path d="M10.9053 10.6715C10.6203 10.6715 10.3898 10.4403 10.3898 10.156V9.12376C10.3898 8.8394 10.6203 8.60826 10.9053 8.60826C11.1908 8.60826 11.4214 8.8394 11.4214 9.12376V10.156C11.4214 10.4403 11.1908 10.6715 10.9053 10.6715Z" fill="black"/>
<path d="M17.907 10.2957H25.5787V8.12825C25.5435 7.09168 24.7344 6.26666 23.7367 6.26666H19.749C18.7518 6.26666 17.9423 7.09168 17.907 8.14588V10.2957ZM26.095 11.3273H17.3913C17.1062 11.3273 16.8746 11.0965 16.8746 10.8114V8.12825C16.93 6.49829 18.1921 5.23475 19.749 5.23475H23.7367C25.2937 5.23475 26.5557 6.49829 26.6106 8.11063L26.6112 10.8114C26.6112 11.0965 26.3795 11.3273 26.095 11.3273Z" fill="black"/>
<path d="M21.7429 1.03191C21.0142 1.03191 20.4208 1.62531 20.4208 2.35459C20.4208 3.0832 21.0142 3.67623 21.7429 3.67623C22.4717 3.67623 23.0651 3.0832 23.0651 2.35459C23.0651 1.62531 22.4717 1.03191 21.7429 1.03191ZM21.7429 4.70815C20.4451 4.70815 19.3889 3.65234 19.3889 2.35459C19.3889 1.05622 20.4451 1.43051e-06 21.7429 1.43051e-06C23.0407 1.43051e-06 24.097 1.05622 24.097 2.35459C24.097 3.65234 23.0407 4.70815 21.7429 4.70815Z" fill="black"/>
<path d="M4.43564 24.5331C4.30348 24.5331 4.17132 24.4829 4.07026 24.3819C3.86916 24.1802 3.86916 23.8537 4.07026 23.6526L12.0752 15.6477L4.07336 7.64617C3.87226 7.44414 3.87226 7.11757 4.07336 6.91652C4.27497 6.71491 4.6015 6.71491 4.80311 6.91652L13.1699 15.2826C13.2668 15.3796 13.3207 15.5112 13.3207 15.6477C13.3207 15.7846 13.2668 15.9162 13.1699 16.0125L4.8 24.3819C4.69893 24.4829 4.56677 24.5331 4.43564 24.5331Z" fill="black"/>
</svg>
