<svg width="59" height="61" viewBox="0 0 59 61" fill="none" xmlns="http://www.w3.org/2000/svg">
<path d="M52.1574 33.9062H27.7514L9.69098 52.4548C16.0365 56.8479 31.3635 63.5839 41.9069 55.3835C52.4503 47.1831 53.1336 37.6485 52.1574 33.9062Z" fill="#FF9191"/>
<path d="M27.2632 33.9062L10.1791 15.8458C4.31783 18.0438 1.12252 29.9245 2.85725 39.2756C3.8963 44.8765 6.76221 48.5498 10.1791 51.9667L27.2632 33.9062Z" fill="#FDDFBC"/>
<path fill-rule="evenodd" clip-rule="evenodd" d="M32.1443 3.17236V29.025H57.5222C57.2678 15.0182 46.0879 3.67999 32.1443 3.17236Z" fill="#99C2D3"/>
<path fill-rule="evenodd" clip-rule="evenodd" d="M32.1443 22.9531V29.025H57.5221C57.3581 19.9933 52.6515 12.0712 45.5905 7.44678C39.6931 11.1328 34.978 16.5346 32.1443 22.9531Z" fill="#154052" fill-opacity="0.48"/>
<path d="M27.2633 8.52401V32.93L9.69098 15.8458C10.8299 14.8696 13.9864 12.429 17.5009 10.4765C21.0154 8.52401 25.4735 8.36131 27.2633 8.52401Z" fill="#DEB5FF"/>
<path d="M27.2632 8.03589L27.7513 33.9062L22.8701 29.025L17.0127 10.4765C19.7462 8.9145 24.9853 8.1986 27.2632 8.03589Z" fill="#312B2B" fill-opacity="0.48"/>
<path fill-rule="evenodd" clip-rule="evenodd" d="M45.8189 33.4181C41.9937 42.5906 32.9408 49.0378 22.382 49.0378C14.4096 49.0378 7.29572 45.3623 2.6424 39.6133C5.4075 50.637 15.382 58.8002 27.2631 58.8002C41.2813 58.8002 52.6453 47.4362 52.6454 33.4181H45.8189Z" fill="#312B2B" fill-opacity="0.48"/>
<circle cx="46.7881" cy="5.10715" r="4.8812" fill="#F0B48F"/>
<path d="M56.0624 23.1675H37.5138C35.1709 17.3101 38.1647 13.8932 39.9544 12.917C42.8831 12.4289 49.6192 11.8431 53.1337 13.4051C56.6481 14.9671 56.5505 20.5642 56.0624 23.1675Z" fill="#C3A879"/>
<path d="M50.693 23.6557V12.429C53.4265 12.429 55.0861 14.3814 55.5742 15.3577V23.6557H50.693Z" fill="white"/>
<path d="M26.268 9.52398C13.4037 10.1035 3.11491 20.7512 3.11491 33.7567C3.11491 47.1328 13.9979 58.0147 27.3742 58.0147C40.3796 58.0147 51.0271 47.7271 51.6068 34.8626H27.3742C26.7633 34.8626 26.268 34.3676 26.268 33.7567V9.52398ZM27.3742 60.226C12.7784 60.226 0.904785 48.3523 0.904785 33.7567C0.904785 19.1621 12.7784 7.28708 27.3742 7.28708C27.985 7.28708 28.4793 7.78252 28.4793 8.39337V32.6518H52.7374C53.3483 32.6518 53.8436 33.1459 53.8436 33.7567C53.8436 48.3523 41.97 60.226 27.3742 60.226Z" fill="black"/>
<path d="M27.3742 55.5427C26.7633 55.5427 26.268 55.0473 26.268 54.4373C26.268 53.8278 26.7633 53.3315 27.3742 53.3315C35.856 53.3315 43.3316 47.9215 45.976 39.8695C46.1659 39.2887 46.7923 38.971 47.3709 39.1642C47.9507 39.3542 48.2672 39.9792 48.0773 40.5593C45.133 49.5219 36.8133 55.5427 27.3742 55.5427Z" fill="black"/>
<path d="M57.4843 30.1158H32.1199C31.5102 30.1158 31.0137 29.6217 31.0137 29.0109V3.64664C31.0137 3.0358 31.5102 2.54125 32.1199 2.54125C34.4966 2.54125 36.8512 2.85577 39.1202 3.4765C39.7088 3.63754 40.0564 4.24483 39.8943 4.83357C39.7343 5.42453 39.1257 5.77115 38.5371 5.60889C36.8101 5.13688 35.0286 4.85789 33.2261 4.77592V27.9046H56.3537C56.3392 27.5805 56.3181 27.2573 56.2915 26.9349C56.2393 26.3275 56.6902 25.7909 57.2988 25.7401C57.9174 25.6989 58.4439 26.141 58.4938 26.7497C58.5583 27.4972 58.5893 28.2577 58.5893 29.0109C58.5893 29.3029 58.4738 29.584 58.2651 29.7927C58.0585 29.9991 57.7775 30.1158 57.4843 30.1158Z" fill="black"/>
<path d="M23.3035 17.1039C22.6929 17.1039 22.1988 16.6098 22.1988 15.9991V13.7885C22.1988 13.1779 22.6929 12.6839 23.3035 12.6839C23.9153 12.6839 24.4094 13.1779 24.4094 13.7885V15.9991C24.4094 16.6098 23.9153 17.1039 23.3035 17.1039Z" fill="black"/>
<path d="M23.3035 23.0934C22.6929 23.0934 22.1988 22.5981 22.1988 21.9888V19.7768C22.1988 19.1675 22.6929 18.6722 23.3035 18.6722C23.9153 18.6722 24.4094 19.1675 24.4094 19.7768V21.9888C24.4094 22.5981 23.9153 23.0934 23.3035 23.0934Z" fill="black"/>
<path d="M38.3072 22.2882H54.7466V17.6436C54.671 15.4223 52.9374 13.6544 50.7994 13.6544H42.2543C40.1175 13.6544 38.3827 15.4223 38.3072 17.6813V22.2882ZM55.8527 24.4987H37.2021C36.5912 24.4987 36.0948 24.0041 36.0948 23.3933V17.6436C36.2136 14.1508 38.918 11.4432 42.2543 11.4432H50.7994C54.1357 11.4432 56.8401 14.1508 56.9578 17.6058L56.9589 23.3933C56.9589 24.0041 56.4625 24.4987 55.8527 24.4987Z" fill="black"/>
<path d="M46.5271 2.43718C44.9655 2.43718 43.6939 3.70873 43.6939 5.27149C43.6939 6.8328 44.9655 8.10357 46.5271 8.10357C48.0886 8.10357 49.3603 6.8328 49.3603 5.27149C49.3603 3.70873 48.0886 2.43718 46.5271 2.43718ZM46.5271 10.3148C43.7461 10.3148 41.4826 8.05237 41.4826 5.27149C41.4826 2.48927 43.7461 0.22594 46.5271 0.22594C49.3081 0.22594 51.5715 2.48927 51.5715 5.27149C51.5715 8.05237 49.3081 10.3148 46.5271 10.3148Z" fill="black"/>
<path d="M9.4399 52.7969C9.15669 52.7969 8.8735 52.6893 8.65693 52.4728C8.22601 52.0407 8.22601 51.3409 8.65693 50.9101L25.8105 33.7567L8.66357 16.6106C8.23265 16.1776 8.23265 15.4778 8.66357 15.047C9.09561 14.615 9.7953 14.615 10.2273 15.047L28.1561 32.9745C28.3638 33.1822 28.4793 33.4642 28.4793 33.7567C28.4793 34.05 28.3638 34.332 28.1561 34.5384L10.2207 52.4728C10.0041 52.6893 9.72088 52.7969 9.4399 52.7969Z" fill="black"/>
</svg>
