<svg width="12" height="12" viewBox="0 0 12 12" fill="none" xmlns="http://www.w3.org/2000/svg">
<path d="M6 3.77778V6L4.33333 7.66667M6 11C6.65661 11 7.30679 10.8707 7.91342 10.6194C8.52005 10.3681 9.07124 9.99983 9.53553 9.53553C9.99983 9.07124 10.3681 8.52005 10.6194 7.91342C10.8707 7.30679 11 6.65661 11 6C11 4.67392 10.4732 3.40215 9.53553 2.46447C8.59785 1.52678 7.32608 1 6 1C4.67392 1 3.40215 1.52678 2.46447 2.46447C1.52678 3.40215 1 4.67392 1 6" stroke="black" stroke-width="1.5" stroke-linecap="round" stroke-linejoin="round"/>
<path d="M6 11C6.65661 11 7.30679 10.8707 7.91342 10.6194C8.52005 10.3681 9.07124 9.99983 9.53553 9.53553C9.99983 9.07124 10.3681 8.52005 10.6194 7.91342C10.8707 7.30679 11 6.65661 11 6C11 4.67392 10.4732 3.40215 9.53553 2.46447C8.59785 1.52678 7.32608 1 6 1C4.67392 1 3.40215 1.52678 2.46447 2.46447C1.52678 3.40215 1 4.67392 1 6" stroke-width="1.5" stroke-linecap="round" stroke-linejoin="round"/>
<path d="M4.0865 10.6194C3.47987 10.3681 2.92868 9.99982 2.46438 9.53553C2.00009 9.07123 1.63179 8.52004 1.38052 7.91341C1.30076 7.72086 1.23329 7.52393 1.17834 7.32379M4.0865 10.6194L3.7777 9.88888M4.0865 10.6194L3.22214 10.7222" stroke="#37E6BC" stroke-width="1.5" stroke-linecap="round" stroke-linejoin="round"/>
<defs>
<radialGradient id="paint0_radial_7_173" cx="0" cy="0" r="1" gradientUnits="userSpaceOnUse" gradientTransform="translate(-1.08333 2.25) rotate(32.9052) scale(12.6553)">
<stop stop-color="#1E3E4B"/>
<stop offset="1" stop-color="#22BDFF"/>
</radialGradient>
</defs>
</svg>
