<svg width="70" height="61" viewBox="0 0 70 61" fill="none" xmlns="http://www.w3.org/2000/svg">
<circle cx="31.0795" cy="31.1168" r="28.9286" fill="#9DC4FF"/>
<circle cx="30.5148" cy="30.5521" r="27.1171" fill="#FFFACE"/>
<path fill-rule="evenodd" clip-rule="evenodd" d="M30.5147 57.6692C45.4911 57.6692 57.6319 45.5285 57.6319 30.5521C57.6319 26.6531 56.809 22.9463 55.3274 19.5959C53.3984 19.1604 51.3914 18.9305 49.3307 18.9305C34.3543 18.9305 22.2136 31.0713 22.2136 46.0477C22.2136 49.9467 23.0364 53.6535 24.518 57.0039C26.4471 57.4394 28.4541 57.6692 30.5147 57.6692Z" fill="#ECE7C3"/>
<circle cx="49.7228" cy="22.6429" r="4.51952" fill="#F0B48F"/>
<path d="M58.7618 34.5067C58.7618 33.1509 55.3721 31.682 53.6773 31.1171C53.1124 33.0002 51.9825 36.8795 51.9825 37.3314C51.9825 37.7834 52.7357 41.6626 53.1124 43.5458L56.502 47.5003L58.7618 46.9354V44.1107V34.5067Z" fill="white"/>
<path d="M44.1875 30.552L48.1136 33.9167L52.5475 31.1169C52.7111 31.1169 52.4313 30.7025 54.2423 32.2468C57.4381 34.9718 57.067 39.6243 57.067 44.1106C57.067 48.5969 54.0028 47.3756 47.6229 47.3756C42.519 47.3756 40.2614 46.254 39.7707 45.6932C39.6071 43.4501 39.3781 38.1787 39.7707 35.0383C40.1633 31.8979 42.8788 30.7389 44.1875 30.552Z" fill="#C4A879"/>
<path d="M68.9309 47.5002H62.1516C61.2757 47.5002 61.5867 44.218 61.5867 40.1605C61.5867 36.108 61.2757 32.8118 62.1516 32.8118H68.9309C69.8067 32.8118 69.4958 36.108 69.4958 40.1605C69.4958 44.218 69.8067 47.5002 68.9309 47.5002Z" fill="#FFFACE"/>
<path d="M67.5707 47.5002H63.5106C62.7599 47.5002 62.1515 46.7392 62.1515 45.8055C62.1515 44.8696 62.7599 44.1106 63.5106 44.1106H67.5707C68.3214 44.1106 68.9308 44.8696 68.9308 45.8055C68.9308 46.7392 68.3214 47.5002 67.5707 47.5002Z" fill="#ECE7C3"/>
<path d="M67.5707 41.851H63.5115C62.7603 41.851 62.1515 41.0915 62.1515 40.1552C62.1515 39.2189 62.7603 38.4613 63.5115 38.4613H67.5707C68.3225 38.4613 68.9308 39.2189 68.9308 40.1552C68.9308 41.0915 68.3225 41.851 67.5707 41.851Z" fill="#ECE7C3"/>
<path d="M67.5707 36.2015H63.5107C62.7599 36.2015 62.1515 35.4441 62.1515 34.5077C62.1515 33.5726 62.7599 32.8119 63.5107 32.8119H67.5707C68.3214 32.8119 68.9308 33.5726 68.9308 34.5077C68.9308 35.4441 68.3214 36.2015 67.5707 36.2015Z" fill="#ECE7C3"/>
<path d="M41.0156 48.4861C39.1131 48.4861 37.5646 46.9386 37.5646 45.0346V36.3866C37.5646 32.5972 40.6471 29.5157 44.435 29.5157C45.142 29.5157 45.7145 30.0891 45.7145 30.795C45.7145 31.502 45.142 32.0749 44.435 32.0749C42.0585 32.0749 40.1243 34.0086 40.1243 36.3866V45.0346C40.1243 45.5272 40.5241 45.9268 41.0156 45.9268C41.5067 45.9268 41.9073 45.5272 41.9073 45.0346V39.6267C41.9073 38.9198 42.4799 38.3479 43.1863 38.3479C43.8938 38.3479 44.4662 38.9198 44.4662 39.6267V45.0346C44.4662 46.9386 42.9187 48.4861 41.0156 48.4861Z" fill="#252020"/>
<path d="M57.2997 48.4861C55.3966 48.4861 53.8486 46.9386 53.8486 45.0346V39.6267C53.8486 38.9198 54.422 38.3479 55.1285 38.3479C55.8355 38.3479 56.4084 38.9198 56.4084 39.6267V45.0346C56.4084 45.5272 56.808 45.9268 57.2997 45.9268C57.7912 45.9268 58.1909 45.5272 58.1909 45.0346V36.3866C58.1909 34.0086 56.2572 32.0749 53.8802 32.0749C53.1732 32.0749 52.6003 31.502 52.6003 30.795C52.6003 30.0891 53.1732 29.5157 53.8802 29.5157C57.6682 29.5157 60.7501 32.5972 60.7501 36.3866V45.0346C60.7501 46.9386 59.2026 48.4861 57.2997 48.4861Z" fill="#252020"/>
<path d="M49.1579 19.4629C47.2569 19.4629 45.7103 21.009 45.7103 22.9105C45.7103 24.8115 47.2569 26.3575 49.1579 26.3575C51.0584 26.3575 52.6049 24.8115 52.6049 22.9105C52.6049 21.009 51.0584 19.4629 49.1579 19.4629ZM49.1579 28.9167C45.8454 28.9167 43.1506 26.2214 43.1506 22.9105C43.1506 19.5975 45.8454 16.9037 49.1579 16.9037C52.4698 16.9037 55.1642 19.5975 55.1642 22.9105C55.1642 26.2214 52.4698 28.9167 49.1579 28.9167Z" fill="#252020"/>
<path d="M57.2998 48.4861H41.0157C40.3087 48.4861 39.7358 47.9117 39.7358 47.2072C39.7358 46.5002 40.3087 45.9268 41.0157 45.9268H57.2998C58.0062 45.9268 58.5797 46.5002 58.5797 47.2072C58.5797 47.9117 58.0062 48.4861 57.2998 48.4861Z" fill="#252020"/>
<path d="M49.158 35.2539C48.9089 35.2539 48.6588 35.1821 48.4429 35.0369L43.7205 31.8566C43.1345 31.4619 42.9789 30.6665 43.3736 30.0801C43.7688 29.4951 44.5635 29.34 45.1495 29.7346L49.158 32.4315L53.1652 29.7346C53.7528 29.34 54.5467 29.4951 54.9418 30.0801C55.3364 30.6665 55.1808 31.4619 54.5953 31.8566L49.8729 35.0369C49.6561 35.1821 49.407 35.2539 49.158 35.2539Z" fill="#252020"/>
<path d="M29.4846 16.4589C28.7771 16.4589 28.2047 15.8854 28.2047 15.18V9.57291C28.2047 8.86593 28.7771 8.29251 29.4846 8.29251C30.1911 8.29251 30.7635 8.86593 30.7635 9.57291V15.18C30.7635 15.8854 30.1911 16.4589 29.4846 16.4589Z" fill="#252020"/>
<path d="M41.0241 19.2595C40.6972 19.2595 40.3695 19.136 40.1198 18.8844C39.6198 18.3853 39.6198 17.576 40.1198 17.0759L42.6851 14.5101C43.1848 14.0099 43.9942 14.0099 44.4942 14.5101C44.9939 15.0111 44.9939 15.821 44.4942 16.3197L41.9294 18.8844C41.6794 19.136 41.3515 19.2595 41.0241 19.2595Z" fill="#252020"/>
<path d="M29.4846 50.7496C28.7771 50.7496 28.2047 50.1752 28.2047 49.4682V43.8627C28.2047 43.1557 28.7771 42.5832 29.4846 42.5832C30.1911 42.5832 30.7635 43.1557 30.7635 43.8627V49.4682C30.7635 50.1752 30.1911 50.7496 29.4846 50.7496Z" fill="#252020"/>
<path d="M15.3787 44.906C15.0513 44.906 14.7239 44.7814 14.4743 44.532C13.9742 44.0308 13.9742 43.2208 14.4743 42.7208L17.0387 40.1565C17.5377 39.6564 18.3481 39.6564 18.8483 40.1565C19.3479 40.6566 19.3479 41.4665 18.8483 41.9651L16.284 44.532C16.0339 44.7814 15.7065 44.906 15.3787 44.906Z" fill="#252020"/>
<path d="M15.1416 30.8H9.536C8.82902 30.8 8.2561 30.2282 8.2561 29.5212C8.2561 28.8142 8.82902 28.2418 9.536 28.2418H15.1416C15.8486 28.2418 16.421 28.8142 16.421 29.5212C16.421 30.2282 15.8486 30.8 15.1416 30.8Z" fill="#252020"/>
<path d="M17.9435 19.2595C17.6161 19.2595 17.2876 19.136 17.0387 18.8844L14.4743 16.3197C13.9742 15.821 13.9742 15.0111 14.4743 14.5101C14.9739 14.0099 15.7844 14.0099 16.284 14.5101L18.8483 17.0759C19.3479 17.576 19.3479 18.3853 18.8483 18.8844C18.5986 19.136 18.2709 19.2595 17.9435 19.2595Z" fill="#252020"/>
<path d="M29.5247 54.9479C22.9044 54.9479 16.3679 52.3745 11.4994 47.5066C6.69518 42.7028 4.05005 36.3144 4.05005 29.5213C4.05005 22.7278 6.69518 16.3403 11.4994 11.5371C16.3031 6.73185 22.6901 4.08672 29.4846 4.08672C36.2782 4.08672 42.6651 6.73185 47.4688 11.5371C48.0678 12.1347 48.6463 12.7748 49.1881 13.4356C49.6359 13.982 49.5552 14.7878 49.0093 15.2361C48.4605 15.6836 47.6551 15.6043 47.2078 15.0564C46.7202 14.4614 46.199 13.8855 45.6603 13.3467C41.3386 9.02656 35.5943 6.64598 29.4846 6.64598C23.3739 6.64598 17.6297 9.02656 13.3085 13.3467C8.98834 17.6659 6.60932 23.4116 6.60932 29.5213C6.60932 35.6306 8.98834 41.3768 13.3085 45.6969C20.1056 52.4925 30.515 54.3142 39.2096 50.233C39.8488 49.9323 40.6119 50.2074 40.9117 50.8476C41.2125 51.4873 40.9369 52.2485 40.2977 52.5493C36.8587 54.1636 33.1787 54.9479 29.5247 54.9479Z" fill="#252020"/>
<path d="M29.4847 27.7705C29.0358 27.7705 28.5869 27.9402 28.2454 28.2822C27.5621 28.9645 27.5621 30.0768 28.2454 30.7601C28.9283 31.4429 30.04 31.4429 30.7229 30.7601C31.4062 30.0768 31.4062 28.9645 30.7229 28.2822C30.3814 27.9402 29.9325 27.7705 29.4847 27.7705ZM29.4847 33.8301C28.3805 33.8301 27.2758 33.4098 26.4358 32.5687C24.7542 30.8876 24.7542 28.1537 26.4358 26.4735C28.1164 24.7909 30.852 24.7909 32.5325 26.4735C34.2136 28.1537 34.2136 30.8876 32.5325 32.5687C31.6925 33.4098 30.5878 33.8301 29.4847 33.8301Z" fill="#252020"/>
<path d="M29.4896 59.0511C21.9228 59.0511 14.386 56.1278 8.6318 50.3746C-2.86661 38.8752 -2.86661 20.1659 8.6318 8.66805C20.1293 -2.82893 38.8395 -2.82893 50.3373 8.66805C51.5365 9.86863 52.635 11.172 53.6027 12.5449C54.0104 13.1217 53.8722 13.9201 53.2948 14.3273C52.7179 14.7366 51.919 14.5965 51.5113 14.0191C50.6276 12.7672 49.6234 11.5753 48.5272 10.4777C38.0266 -0.0226173 20.9416 -0.0215912 10.4409 10.4777C-0.0592877 20.9783 -0.0592877 38.0627 10.4409 48.5635C20.2587 58.3813 35.7584 59.1707 46.4963 50.4012C47.0426 49.9528 47.8499 50.0362 48.2964 50.584C48.7427 51.1303 48.6618 51.9362 48.1145 52.3836C42.6506 56.8479 36.0587 59.0511 29.4896 59.0511Z" fill="#252020"/>
<path d="M27.3405 28.6571C27.0131 28.6571 26.6857 28.531 26.4357 28.282L23.081 24.9268C22.581 24.4267 22.581 23.6174 23.081 23.1172C23.5807 22.6181 24.3906 22.6181 24.8907 23.1172L28.2453 26.4733C28.7449 26.9719 28.7449 27.7819 28.2453 28.282C27.9958 28.531 27.6679 28.6571 27.3405 28.6571Z" fill="#252020"/>
<path d="M29.4846 39.9884C28.7771 39.9884 28.2047 39.4165 28.2047 38.7095V32.552C28.2047 31.8451 28.7771 31.2732 29.4846 31.2732C30.1911 31.2732 30.7635 31.8451 30.7635 32.552V38.7095C30.7635 39.4165 30.1911 39.9884 29.4846 39.9884Z" fill="#252020"/>
<path d="M68.173 47.0441H64.3525C63.646 47.0441 63.0735 46.4691 63.0735 45.7637C63.0735 45.0567 63.646 44.4833 64.3525 44.4833H68.173C68.8794 44.4833 69.4529 45.0567 69.4529 45.7637C69.4529 46.4691 68.8794 47.0441 68.173 47.0441Z" fill="#252020"/>
<path d="M68.0283 41.6133H64.2084C63.5014 41.6133 62.9285 41.0399 62.9285 40.3329C62.9285 39.6259 63.5014 39.0539 64.2084 39.0539H68.0283C68.7358 39.0539 69.3082 39.6259 69.3082 40.3329C69.3082 41.0399 68.7358 41.6133 68.0283 41.6133Z" fill="#252020"/>
<path d="M67.8842 36.1808H64.0637C63.3572 36.1808 62.7847 35.6089 62.7847 34.9019C62.7847 34.1959 63.3572 33.6215 64.0637 33.6215H67.8842C68.5907 33.6215 69.1641 34.1959 69.1641 34.9019C69.1641 35.6089 68.5907 36.1808 67.8842 36.1808Z" fill="#252020"/>
</svg>
