<svg width="72" height="61" viewBox="0 0 72 61" fill="none" xmlns="http://www.w3.org/2000/svg">
<path d="M13.604 18.9634L64.1296 4.59811V1.47522H70.0046V53.9397H64.1296V51.4414L44.1544 45.7621V55.1888L42.3918 58.9363H21.2416L18.3041 57.0626V38.4124L13.604 37.0761H1.85388V18.9634H13.604Z" fill="#E8E2B5"/>
<path fill-rule="evenodd" clip-rule="evenodd" d="M8.904 31.4549V18.9634H1.85388V37.0761H13.604L18.3041 38.4124V52.6906H38.2793V44.5711V43.9465L44.1544 45.8202V45.7621L64.1296 51.4414V53.9397H70.0046V1.47522H64.1296V4.59811L60.6046 5.60033V39.5744C60.6046 44.571 59.4296 45.8202 57.667 45.1956C56.257 44.6959 30.0542 37.4925 17.1291 33.9532L15.664 18.3777L13.604 18.9634H11.254V31.4549H8.904Z" fill="#88825A" fill-opacity="0.48"/>
<path d="M3.34033 35.3541H12.2739V20.6557H3.34033V35.3541ZM13.6053 38.1835H3.06228C1.74824 38.1835 0.678894 37.0483 0.678894 35.6511V20.3601C0.678894 18.9632 1.74824 17.8263 3.06228 17.8263H13.6053C14.3405 17.8263 14.9354 18.4601 14.9354 19.2417V36.7696C14.9354 37.5512 14.3405 38.1835 13.6053 38.1835Z" fill="black"/>
<path d="M6.87746 31.699C6.14224 31.699 5.54742 31.065 5.54742 30.2834V19.2416C5.54742 18.46 6.14224 17.8262 6.87746 17.8262C7.61267 17.8262 8.20756 18.46 8.20756 19.2416V30.2834C8.20756 31.065 7.61267 31.699 6.87746 31.699Z" fill="black"/>
<path d="M65.3004 52.9956H68.6476V3.05538H65.3004V4.71808C65.3004 5.35615 64.898 5.91464 64.3192 6.08376L14.9354 20.3445V35.7082L64.3192 49.9687C64.898 50.1362 65.3004 50.6964 65.3004 51.3348V52.9956ZM68.9256 55.8252H65.0223C63.7096 55.8252 62.6403 54.6899 62.6403 53.2926V52.4161L13.2551 38.1552C12.6763 37.9892 12.2739 37.4275 12.2739 36.7895V19.2616C12.2739 18.625 12.6763 18.0637 13.2551 17.8974L62.6403 3.6352V2.75979C62.6403 1.36143 63.7096 0.225975 65.0223 0.225975H68.9256C70.2383 0.225975 71.3078 1.36143 71.3078 2.75979V53.2926C71.3078 54.6899 70.2383 55.8252 68.9256 55.8252Z" fill="black"/>
<path d="M63.9704 8.9613C63.2351 8.9613 62.6403 8.32892 62.6403 7.54731V4.71789C62.6403 3.93629 63.2351 3.30248 63.9704 3.30248C64.7056 3.30248 65.3005 3.93629 65.3005 4.71789V7.54731C65.3005 8.32892 64.7056 8.9613 63.9704 8.9613Z" fill="black"/>
<path d="M63.9704 17.137C63.2351 17.137 62.6403 16.5031 62.6403 15.7215V11.6345C62.6403 10.8529 63.2351 10.219 63.9704 10.219C64.7056 10.219 65.3005 10.8529 65.3005 11.6345V15.7215C65.3005 16.5031 64.7056 17.137 63.9704 17.137Z" fill="black"/>
<path d="M63.9704 24.052C63.2351 24.052 62.6403 23.4196 62.6403 22.638V19.8086C62.6403 19.027 63.2351 18.3946 63.9704 18.3946C64.7056 18.3946 65.3005 19.027 65.3005 19.8086V22.638C65.3005 23.4196 64.7056 24.052 63.9704 24.052Z" fill="black"/>
<path d="M63.9704 52.7485C63.2351 52.7485 62.6403 52.1146 62.6403 51.3347V22.6381C62.6403 21.8565 63.2351 21.2227 63.9704 21.2227C64.7056 21.2227 65.3005 21.8565 65.3005 22.6381V51.3347C65.3005 52.1146 64.7056 52.7485 63.9704 52.7485Z" fill="black"/>
<path d="M40.1587 60.226H22.2127C19.1556 60.226 16.6705 57.5858 16.6705 54.3385V38.0602C16.6705 37.2797 17.2667 36.6446 18.0019 36.6446C18.7372 36.6446 19.332 37.2797 19.332 38.0602V54.3385C19.332 56.0255 20.6233 57.3983 22.2127 57.3983H40.1587C41.7481 57.3983 43.0394 56.0255 43.0394 54.3385V45.6742C43.0394 44.8925 43.6342 44.2586 44.3695 44.2586C45.1047 44.2586 45.7009 44.8925 45.7009 45.6742V54.3385C45.7009 57.5858 43.2145 60.226 40.1587 60.226Z" fill="black"/>
<path d="M38.5346 54.7064H24.6363C23.9011 54.7064 23.3063 54.073 23.3063 53.2926C23.3063 52.511 23.9011 51.877 24.6363 51.877H37.2018V43.9887C37.2018 43.2083 37.798 42.5733 38.5346 42.5733C39.2685 42.5733 39.8646 43.2083 39.8646 43.9887V53.2926C39.8646 54.073 39.2685 54.7064 38.5346 54.7064Z" fill="black"/>
<path d="M50.683 29.4197H29.8991C29.1639 29.4197 28.5677 28.7874 28.5677 28.0058C28.5677 27.2242 29.1639 26.5903 29.8991 26.5903H50.683C51.4182 26.5903 52.0157 27.2242 52.0157 28.0058C52.0157 28.7874 51.4182 29.4197 50.683 29.4197Z" fill="black"/>
<path d="M29.899 22.8882C29.3015 22.8882 28.7588 22.459 28.6077 21.8167C28.4299 21.0592 28.8631 20.2904 29.5755 20.1L52.7295 13.9466C53.442 13.7562 54.1638 14.218 54.3429 14.9755C54.5221 15.7343 54.0863 16.5018 53.3738 16.6908L30.2225 22.8441C30.1142 22.874 30.0046 22.8882 29.899 22.8882Z" fill="black"/>
<path d="M53.053 42.1458C52.946 42.1458 52.8378 42.133 52.7295 42.1041L29.5755 35.9512C28.8631 35.7619 28.4299 34.9931 28.6077 34.2369C28.7868 33.4782 29.5047 33.0163 30.2225 33.2066L53.3738 39.3601C54.0863 39.5488 54.5221 40.3166 54.3429 41.0754C54.1905 41.7177 53.6492 42.1458 53.053 42.1458Z" fill="black"/>
</svg>
