<svg width="14" height="14" viewBox="0 0 14 14" fill="none" xmlns="http://www.w3.org/2000/svg">
<path d="M7 4.33333V7L9 9M7 13C6.21207 13 5.43185 12.8448 4.7039 12.5433C3.97595 12.2417 3.31451 11.7998 2.75736 11.2426C2.20021 10.6855 1.75825 10.0241 1.45672 9.2961C1.15519 8.56815 1 7.78793 1 7C1 5.4087 1.63214 3.88258 2.75736 2.75736C3.88258 1.63214 5.4087 1 7 1C8.5913 1 10.1174 1.63214 11.2426 2.75736C12.3679 3.88258 13 5.4087 13 7" stroke="black" stroke-width="1.5" stroke-linecap="round" stroke-linejoin="round"/>
<path d="M7 13C6.21207 13 5.43185 12.8448 4.7039 12.5433C3.97595 12.2417 3.31451 11.7998 2.75736 11.2426C2.20021 10.6855 1.75825 10.0241 1.45672 9.2961C1.15519 8.56815 1 7.78793 1 7C1 5.4087 1.63214 3.88258 2.75736 2.75736C3.88258 1.63214 5.4087 1 7 1C8.5913 1 10.1174 1.63214 11.2426 2.75736C12.3679 3.88258 13 5.4087 13 7" stroke-width="1.5" stroke-linecap="round" stroke-linejoin="round"/>
<path d="M9.2961 12.5433C10.0241 12.2418 10.6855 11.7998 11.2426 11.2426C11.7998 10.6855 12.2418 10.0241 12.5433 9.29611C12.639 9.06505 12.72 8.82873 12.7859 8.58856M9.2961 12.5433L9.66667 11.6667M9.2961 12.5433L10.3333 12.6667" stroke="#E63756" stroke-width="1.5" stroke-linecap="round" stroke-linejoin="round"/>
<defs>
<radialGradient id="paint0_radial_7_181" cx="0" cy="0" r="1" gradientUnits="userSpaceOnUse" gradientTransform="translate(15.5 2.5) rotate(147.095) scale(15.1863)">
<stop stop-color="#1E3E4B"/>
<stop offset="1" stop-color="#22BDFF"/>
</radialGradient>
</defs>
</svg>
