<svg width="80" height="68" viewBox="0 0 80 68" fill="none" xmlns="http://www.w3.org/2000/svg">
<path d="M4 16.8571L35.4234 39.4C36.7323 40.3398 38.2706 40.8413 39.8442 40.8413C41.4177 40.8413 42.956 40.3398 44.2649 39.4L75.6883 16.8571M11.9654 64H67.7229C69.8355 64 71.8615 63.0969 73.3553 61.4895C74.8491 59.882 75.6883 57.7019 75.6883 55.4286V12.5714C75.6883 10.2981 74.8491 8.11797 73.3553 6.51051C71.8615 4.90306 69.8355 4 67.7229 4H11.9654C9.85282 4 7.8268 4.90306 6.333 6.51051C4.83921 8.11797 4 10.2981 4 12.5714V55.4286C4 57.7019 4.83921 59.882 6.333 61.4895C7.8268 63.0969 9.85282 64 11.9654 64Z" stroke="#3A3939" stroke-width="7" stroke-linecap="round" stroke-linejoin="round"/>
</svg>
